<svg width="864" height="765" viewBox="0 0 864 765" fill="none" xmlns="http://www.w3.org/2000/svg">
<path d="M862.584 155.066C862.584 154.107 862.584 154.107 862.584 153.148C862.584 153.148 862.584 153.148 862.584 152.19C862.584 152.19 862.584 151.231 861.625 151.231L860.666 150.272C860.666 150.272 860.666 150.272 859.708 150.272L433.088 0.715485C432.129 0.715485 430.212 0.715485 429.253 0.715485L296.953 46.7329L170.405 90.8329L3.59167 150.272C3.59167 150.272 3.59167 150.272 2.63297 150.272C2.63297 150.272 1.67427 150.272 1.67427 151.231L0.715576 152.19C0.715576 152.19 0.715576 152.19 0.715576 153.148C0.715576 154.107 0.715576 154.107 0.715576 155.066V587.438C0.715576 589.355 1.67427 591.273 4.55036 592.231L430.212 764.797C431.17 764.797 431.17 764.797 432.129 764.797C433.088 764.797 433.088 764.797 434.046 764.797L859.708 592.231C861.625 591.273 863.542 589.355 863.542 587.438V155.066C862.584 155.066 862.584 155.066 862.584 155.066ZM431.17 11.2611L840.534 155.066L705.357 203.959H704.399L309.416 54.4025L431.17 11.2611ZM592.231 246.142L188.62 96.5851L293.118 59.196L690.018 210.67L592.231 246.142ZM697.688 219.298L698.647 373.648L599.901 409.12L597.984 255.729L697.688 219.298ZM172.322 102.337L575.933 251.894L431.17 304.622L21.8069 156.024L172.322 102.337ZM10.3025 163.694L425.418 315.168V753.292L10.3025 584.562V163.694ZM436.922 752.334V315.168L587.438 260.522L589.355 417.748C589.355 419.666 590.314 421.583 591.273 422.542C592.231 423.501 593.19 423.501 594.149 423.501C595.107 423.501 595.107 423.501 596.066 423.501L706.316 383.235C708.234 382.277 710.151 380.359 710.151 378.442L709.192 215.463L852.038 163.694V584.562L436.922 752.334Z" fill="#017C70"/>
<path d="M644.001 541.42C641.125 541.42 638.249 544.296 638.249 547.172V634.414C638.249 637.29 641.125 640.166 644.001 640.166C646.877 640.166 649.753 637.29 649.753 634.414V547.172C649.753 544.296 646.877 541.42 644.001 541.42Z" fill="#017C70"/>
<path d="M715.903 514.577C713.027 514.577 710.151 517.453 710.151 520.329V605.653C710.151 608.529 713.027 611.405 715.903 611.405C718.779 611.405 721.655 608.529 721.655 605.653V520.329C720.697 516.494 718.779 514.577 715.903 514.577Z" fill="#017C70"/>
<path d="M555.801 574.975C552.925 574.975 550.049 577.851 550.049 580.727V669.886C550.049 672.762 552.925 675.638 555.801 675.638C558.677 675.638 561.553 672.762 561.553 669.886V580.727C561.553 577.851 558.677 574.975 555.801 574.975Z" fill="#017C70"/>
<path d="M750.416 501.155C747.54 501.155 744.664 504.031 744.664 506.907V590.314V591.272C744.664 594.149 747.54 596.066 750.416 596.066C753.292 596.066 756.168 593.19 755.21 590.314V506.907C755.21 504.031 753.292 501.155 750.416 501.155Z" fill="#017C70"/>
<path d="M673.72 530.875C670.844 530.875 667.968 533.751 667.968 536.627V622.909C667.968 625.786 670.844 628.662 673.72 628.662C676.597 628.662 679.473 625.786 679.473 622.909V536.627C679.473 532.792 676.597 530.875 673.72 530.875Z" fill="#017C70"/>
<path d="M585.52 564.429C582.644 564.429 579.768 567.305 579.768 570.181V658.381C579.768 661.257 582.644 664.133 585.52 664.133C588.397 664.133 591.273 661.257 591.273 658.381V570.181C590.314 566.346 588.397 564.429 585.52 564.429Z" fill="#017C70"/>
</svg>
