<svg width="3001" height="765" viewBox="0 0 3001 765" fill="none" xmlns="http://www.w3.org/2000/svg">
<path d="M862.584 155.066C862.584 154.107 862.584 154.107 862.584 153.148C862.584 153.148 862.584 153.148 862.584 152.19C862.584 152.19 862.584 151.231 861.625 151.231L860.666 150.272C860.666 150.272 860.666 150.272 859.708 150.272L433.088 0.715485C432.129 0.715485 430.212 0.715485 429.253 0.715485L296.953 46.7329L170.405 90.8329L3.59167 150.272C3.59167 150.272 3.59167 150.272 2.63297 150.272C2.63297 150.272 1.67427 150.272 1.67427 151.231L0.715576 152.19C0.715576 152.19 0.715576 152.19 0.715576 153.148C0.715576 154.107 0.715576 154.107 0.715576 155.066V587.438C0.715576 589.355 1.67427 591.273 4.55036 592.231L430.212 764.797C431.17 764.797 431.17 764.797 432.129 764.797C433.088 764.797 433.088 764.797 434.046 764.797L859.708 592.231C861.625 591.273 863.542 589.355 863.542 587.438V155.066C862.584 155.066 862.584 155.066 862.584 155.066ZM431.17 11.2611L840.534 155.066L705.357 203.959H704.399L309.416 54.4025L431.17 11.2611ZM592.231 246.142L188.62 96.5851L293.118 59.196L690.018 210.67L592.231 246.142ZM697.688 219.298L698.647 373.648L599.901 409.12L597.984 255.729L697.688 219.298ZM172.322 102.337L575.933 251.894L431.17 304.622L21.8069 156.024L172.322 102.337ZM10.3025 163.694L425.418 315.168V753.292L10.3025 584.562V163.694ZM436.922 752.334V315.168L587.438 260.522L589.355 417.748C589.355 419.666 590.314 421.583 591.273 422.542C592.231 423.501 593.19 423.501 594.149 423.501C595.107 423.501 595.107 423.501 596.066 423.501L706.316 383.235C708.234 382.277 710.151 380.359 710.151 378.442L709.192 215.463L852.038 163.694V584.562L436.922 752.334Z" fill="#017C70"/>
<path d="M644.001 541.42C641.125 541.42 638.249 544.296 638.249 547.172V634.414C638.249 637.29 641.125 640.166 644.001 640.166C646.877 640.166 649.753 637.29 649.753 634.414V547.172C649.753 544.296 646.877 541.42 644.001 541.42Z" fill="#017C70"/>
<path d="M715.903 514.577C713.027 514.577 710.151 517.453 710.151 520.329V605.653C710.151 608.529 713.027 611.405 715.903 611.405C718.779 611.405 721.655 608.529 721.655 605.653V520.329C720.697 516.494 718.779 514.577 715.903 514.577Z" fill="#017C70"/>
<path d="M555.801 574.975C552.925 574.975 550.049 577.851 550.049 580.727V669.886C550.049 672.762 552.925 675.638 555.801 675.638C558.677 675.638 561.553 672.762 561.553 669.886V580.727C561.553 577.851 558.677 574.975 555.801 574.975Z" fill="#017C70"/>
<path d="M750.416 501.155C747.54 501.155 744.664 504.031 744.664 506.907V590.314V591.272C744.664 594.149 747.54 596.066 750.416 596.066C753.292 596.066 756.168 593.19 755.21 590.314V506.907C755.21 504.031 753.292 501.155 750.416 501.155Z" fill="#017C70"/>
<path d="M673.72 530.875C670.844 530.875 667.968 533.751 667.968 536.627V622.909C667.968 625.786 670.844 628.662 673.72 628.662C676.597 628.662 679.473 625.786 679.473 622.909V536.627C679.473 532.792 676.597 530.875 673.72 530.875Z" fill="#017C70"/>
<path d="M585.52 564.429C582.644 564.429 579.768 567.305 579.768 570.181V658.381C579.768 661.257 582.644 664.133 585.52 664.133C588.397 664.133 591.273 661.257 591.273 658.381V570.181C590.314 566.346 588.397 564.429 585.52 564.429Z" fill="#017C70"/>
<path d="M1145.46 187.275V364.679H1092.31V187.275H1145.46ZM1146.89 136.28C1146.89 151.363 1134.68 163.214 1118.52 163.214C1103.08 163.214 1090.51 151.363 1090.51 136.28C1090.51 121.556 1103.08 110.064 1118.52 110.064C1134.68 110.064 1146.89 121.556 1146.89 136.28ZM1341.25 263.408V364.679H1288.1V263.408C1288.1 236.474 1280.92 224.623 1260.09 224.623C1238.54 224.623 1225.97 236.474 1225.97 263.408V364.679H1172.82V187.275H1225.97V204.153C1239.62 190.866 1258.29 184.761 1273.73 184.761C1323.65 184.761 1341.25 208.822 1341.25 263.408V263.408ZM1458.75 364.679H1423.91L1348.86 187.275H1403.8L1441.15 288.546C1453.36 257.662 1467.01 217.082 1478.5 187.275H1533.09L1458.75 364.679ZM1722.05 276.336V288.187H1595.64C1595.64 309.016 1616.83 323.74 1634.43 323.74C1651.67 323.74 1667.47 316.917 1675.73 301.834L1711.28 334.514C1696.91 353.906 1675.01 367.552 1634.43 367.552C1576.25 367.552 1540.7 328.768 1540.7 276.336C1540.7 223.905 1575.17 184.761 1631.2 184.761C1687.22 184.761 1722.05 223.187 1722.05 276.336ZM1596.72 254.43H1666.39C1663.52 237.551 1651.31 228.574 1631.2 228.574C1611.8 228.574 1599.95 238.988 1596.72 254.43ZM1909.22 263.408V364.679H1856.07V263.408C1856.07 236.474 1848.89 224.623 1828.06 224.623C1806.52 224.623 1793.95 236.474 1793.95 263.408V364.679H1740.8V187.275H1793.95V204.153C1807.59 190.866 1826.27 184.761 1841.71 184.761C1891.63 184.761 1909.22 208.822 1909.22 263.408V263.408ZM2000.51 289.265C2000.51 302.193 2000.15 323.74 2019.9 323.74C2029.6 323.74 2035.7 319.79 2042.53 314.762V358.574C2034.27 363.243 2024.21 367.552 2013.44 367.552C1967.83 367.552 1947.36 348.16 1947.36 289.265V231.087H1927.61V187.275H1947.36V136.28H2000.51V187.275H2042.53V231.087H2000.51V289.265ZM2160.39 228.574C2138.48 228.574 2120.17 247.966 2120.17 276.336C2120.17 304.348 2138.48 323.74 2160.39 323.74C2182.65 323.74 2200.97 304.348 2200.97 276.336C2200.97 247.966 2182.65 228.574 2160.39 228.574V228.574ZM2160.39 184.761C2212.46 184.761 2254.12 223.905 2254.12 276.336C2254.12 328.768 2212.46 367.552 2160.39 367.552C2108.67 367.552 2067.02 328.768 2067.02 276.336C2067.02 223.905 2108.67 184.761 2160.39 184.761ZM2393.53 189.789L2386.34 229.651C2373.06 223.905 2370.54 224.982 2364.44 224.982C2342.89 224.982 2330.32 236.474 2330.32 264.845V364.679H2277.17V187.275H2330.32V203.076C2337.14 190.866 2355.82 184.761 2367.67 184.761C2378.8 184.761 2385.27 185.12 2393.53 189.789V189.789ZM2521.44 187.275H2576.75C2576.75 187.275 2530.78 295.37 2503.84 359.652C2479.78 416.752 2462.19 451.227 2423.76 451.227C2407.96 451.227 2388.93 435.785 2383.54 431.476L2398.98 387.663C2406.16 394.486 2415.5 398.796 2423.04 398.796C2441.36 398.796 2451.05 361.807 2457.16 340.259L2392.16 187.275H2447.46L2484.45 275.977C2496.3 247.248 2509.95 214.568 2521.44 187.275V187.275ZM2643.61 187.275V364.679H2590.46V187.275H2643.61ZM2645.05 136.28C2645.05 151.363 2632.84 163.214 2616.68 163.214C2601.24 163.214 2588.67 151.363 2588.67 136.28C2588.67 121.556 2601.24 110.064 2616.68 110.064C2632.84 110.064 2645.05 121.556 2645.05 136.28ZM2719.1 243.297C2719.1 264.485 2808.88 254.43 2808.88 310.453C2808.88 347.083 2776.56 367.552 2736.33 367.552C2710.84 367.552 2685.34 354.983 2665.23 334.873L2700.06 300.038C2710.12 312.248 2724.48 321.585 2736.33 322.663C2748.19 323.74 2758.24 318.712 2760.04 313.326C2764.35 299.679 2739.57 298.961 2732.02 296.806C2703.65 288.187 2670.62 276.336 2670.62 241.143C2670.62 199.126 2714.43 184.761 2736.33 184.761C2761.47 184.761 2786.97 196.253 2807.44 217.082L2772.96 251.557C2763.63 239.347 2747.47 229.651 2736.33 229.651C2730.59 229.651 2719.1 231.806 2719.1 243.297V243.297ZM3000.72 263.408V364.679H2947.57V263.408C2947.57 236.115 2940.38 224.623 2919.55 224.623C2898.01 224.623 2885.44 236.115 2885.44 263.408V364.679H2832.29V103.959H2885.44V207.026C2892.26 187.275 2918.12 184.761 2933.56 184.761C2983.12 184.761 3000.72 208.822 3000.72 263.408Z" fill="#406B8A"/>
<path d="M1104.31 631.828V667.683H1090.51V565.525H1104.31V615.039L1153.83 565.525H1172.89L1130.35 606.786L1174.03 667.683H1156.1L1120.39 616.462L1104.31 631.828ZM1285.95 655.447V667.683H1210.54V565.525H1284.95V577.761H1224.34V609.063H1280.26V621.299H1224.34V655.447H1285.95V655.447ZM1404.56 655.447V667.683H1329.15V565.525H1403.56V577.761H1342.95V609.063H1398.87V621.299H1342.95V655.447H1404.56ZM1461.55 577.334V612.762H1489.02C1501.39 612.762 1509.79 608.209 1509.79 594.408C1509.79 581.46 1500.97 577.334 1489.58 577.334H1461.55ZM1461.55 624.572V667.683H1447.75V565.525H1493.71C1512.63 565.525 1524.02 577.761 1524.02 594.266C1524.02 608.494 1515.91 624.572 1493.71 624.572H1461.55V624.572ZM1644.13 565.525V667.683H1630.33V565.525H1644.13ZM1682.63 577.761V565.525H1765.58V577.761H1731.01V667.683H1717.21V577.761H1682.63ZM1945.46 616.604C1945.46 592.558 1932.08 575.058 1909.88 575.058C1887.69 575.058 1874.31 592.558 1874.31 616.604C1874.31 640.649 1887.69 658.15 1909.88 658.15C1932.08 658.15 1945.46 640.649 1945.46 616.604ZM1959.68 616.604C1959.68 638.658 1948.02 670.386 1909.88 670.386C1871.75 670.386 1860.09 638.658 1860.09 616.604C1860.09 594.55 1871.75 562.821 1909.88 562.821C1948.02 562.821 1959.68 594.55 1959.68 616.604ZM2014.97 577.334V612.762H2042.43C2054.81 612.762 2063.21 608.209 2063.21 594.408C2063.21 581.46 2054.39 577.334 2043 577.334H2014.97ZM2014.97 624.572V667.683H2001.17V565.525H2047.13C2066.05 565.525 2077.44 577.761 2077.44 594.266C2077.44 608.494 2069.33 624.572 2047.13 624.572H2014.97V624.572ZM2109.53 577.761V565.525H2192.48V577.761H2157.91V667.683H2144.11V577.761H2109.53V577.761ZM2244.93 565.525V667.683H2231.13V565.525H2244.93ZM2389.72 667.683H2376.34V607.356C2376.34 604.368 2376.63 591.42 2376.63 581.887H2376.34L2347.6 667.683H2333.94L2305.2 582.029H2304.92C2304.92 591.42 2305.2 604.368 2305.2 607.356V667.683H2291.83V565.525H2311.6L2340.77 651.89H2341.05L2370.08 565.525H2389.72V667.683V667.683ZM2491.53 637.946H2450.55L2439.88 667.683H2425.66L2464.07 565.525H2479.72L2516.72 667.683H2501.63L2491.53 637.946ZM2454.82 625.71H2486.55L2471.47 580.749H2471.19L2454.82 625.71ZM2566.88 565.525V655.447H2618.68V667.683H2553.08V565.525H2566.88Z" fill="#216A63"/>
</svg>
